<svg xmlns="http://www.w3.org/2000/svg" viewBox="0 0 56 56"><defs><linearGradient id="a" x1="100%" x2="0%" y1="0%" y2="100%"><stop offset="0%" stop-color="#FC0B6D"/><stop offset="100%" stop-color="#F16121"/></linearGradient></defs><path fill="url(#a)" fill-rule="nonzero" d="M9.75 28.993a.849.849 0 0 1-.277-1.377l5.042-3.63a5.686 5.686 0 0 1 4.313-1.65l2.741.126C26.223 16.35 34.074 10.721 46.992 9.04a.946.946 0 0 1 1.077 1.076c-1.69 12.919-7.339 20.77-13.439 25.403l.142 2.762a5.686 5.686 0 0 1-1.653 4.317l-3.623 5.037a.849.849 0 0 1-1.385-.276l-1.474-7.377c-1.206.46-3.147 1.548-4.402 1.852a1.12 1.12 0 0 1-1.056-.292l-5.608-5.617a1.12 1.12 0 0 1-.293-1.056c.303-1.255 1.39-3.195 1.848-4.402L9.75 28.993zm26.355-2.685a4.996 4.996 0 1 0 0-9.992 4.996 4.996 0 0 0 0 9.992zM9.08 47.016c-1.268-7.236 5.813-7.163 7.352-8.47.152-.118 2.26 1.994 2.13 2.145-1.308 1.52-1.298 8.664-8.471 7.337-.179-.033-.423-.127-.732-.28-.155-.308-.248-.552-.28-.732z" transform="rotate(-45 28.004 29.817)"/></svg>